<svg width="1543" height="1461" viewBox="0 0 1543 1461" fill="none" xmlns="http://www.w3.org/2000/svg">
<path fill-rule="evenodd" clip-rule="evenodd" d="M360.23 185.516L1296.29 722.375L360.23 1259.23L360.23 185.516ZM620.651 491.627C634.474 515.073 626.601 545.565 603.156 559.389C579.71 573.212 549.217 565.339 535.394 541.893C521.571 518.447 529.444 487.955 552.89 474.132C576.336 460.309 606.828 468.182 620.651 491.627ZM667.689 610.383C692.743 624.622 723.897 629.232 754.763 621.662L732.395 583.722L764.366 564.873L940.296 863.271L908.325 882.121L780.65 665.569C742.614 678.516 701.753 677.904 665.988 665.96L690.899 737.442L760.791 753.681L855.04 913.537L812.411 938.67L737.013 810.785L667.12 794.546L729.286 987.679L684.526 1014.07C684.526 1014.07 562.403 666.138 554.64 643.715C546.877 621.292 557.859 600.456 574.484 590.655C590.043 581.481 609.361 580.145 626.268 588.847L667.689 610.383ZM519.322 816.196L569.66 798.294L512.229 635.114L484.614 644.789C458.956 653.885 445.498 682.212 454.594 707.871L487.781 801.186C492.223 814.078 506.43 820.637 519.322 816.196Z" fill="black"/>
</svg>
