<?xml version="1.0" encoding="UTF-8" standalone="no"?>
<svg
   xmlns:dc="http://purl.org/dc/elements/1.1/"
   xmlns:cc="http://creativecommons.org/ns#"
   xmlns:rdf="http://www.w3.org/1999/02/22-rdf-syntax-ns#"
   xmlns:svg="http://www.w3.org/2000/svg"
   xmlns="http://www.w3.org/2000/svg"
   xmlns:sodipodi="http://sodipodi.sourceforge.net/DTD/sodipodi-0.dtd"
   xmlns:inkscape="http://www.inkscape.org/namespaces/inkscape"
   width="387.05099mm"
   height="365.19003mm"
   viewBox="0 0 387.051 365.19003"
   version="1.1"
   id="svg8"
   inkscape:version="1.0.2-2 (e86c870879, 2021-01-15)"
   sodipodi:docname="logo_simple_red.svg">
  <defs
     id="defs2" />
  <sodipodi:namedview
     id="base"
     pagecolor="#ffffff"
     bordercolor="#666666"
     borderopacity="1.0"
     inkscape:pageopacity="0.0"
     inkscape:pageshadow="2"
     inkscape:zoom="0.35"
     inkscape:cx="1113.9285"
     inkscape:cy="953.93215"
     inkscape:document-units="mm"
     inkscape:current-layer="g24"
     inkscape:document-rotation="0"
     showgrid="false"
     inkscape:window-width="1622"
     inkscape:window-height="1059"
     inkscape:window-x="2391"
     inkscape:window-y="188"
     inkscape:window-maximized="0" />
  <metadata
     id="metadata5">
    <rdf:RDF>
      <cc:Work
         rdf:about="">
        <dc:format>image/svg+xml</dc:format>
        <dc:type
           rdf:resource="http://purl.org/dc/dcmitype/StillImage" />
        <dc:title></dc:title>
      </cc:Work>
    </rdf:RDF>
  </metadata>
  <rect
     style="fill:#d40000;stroke-width:0.222986"
     id="rect25"
     width="356.68887"
     height="351.66904"
     x="17.842663"
     y="3.3512197"
     ry="61.55138" />
  <g
     inkscape:label="Layer 1"
     inkscape:groupmode="layer"
     id="layer1"
     transform="translate(75.52459,30.364262)">
    <path
       sodipodi:type="star"
       style="fill:none;stroke-width:0.264999"
       id="path26"
       sodipodi:sides="5"
       sodipodi:cx="36.348656"
       sodipodi:cy="11.22532"
       sodipodi:r1="307.22049"
       sodipodi:r2="153.61024"
       sodipodi:arg1="0.55325079"
       sodipodi:arg2="1.1815693"
       inkscape:flatsided="false"
       inkscape:rounded="0"
       inkscape:randomized="0"
       d="M 297.73826,172.65612 94.639653,153.34593 -36.407329,309.70647 -80.803165,110.58104 -270.00662,34.266014 -94.346149,-69.490078 -80.233333,-273.0159 72.726645,-138.01526 270.6523,-187.48611 189.52629,-0.29503037 Z"
       inkscape:transform-center-x="22.482835"
       inkscape:transform-center-y="7.1199659" />
    <g
       style="fill:#000000"
       id="g24"
       transform="matrix(3.9897942,-2.3523061,2.3523061,3.9897942,34.109703,125.84594)">
      <rect
         fill="none"
         height="24"
         width="24"
         id="rect10"
         x="0"
         y="0" />
      <path
         d="m 28.903939,-0.28515593 c 2.870218,1.71411393 6.621036,0.76821122 8.335147,-2.10200557 1.714116,-2.8702183 0.768213,-6.621035 -2.102005,-8.3351485 -2.870214,-1.714115 -6.621034,-0.768212 -8.335148,2.1020066 -1.714112,2.8702168 -0.768212,6.6210336 2.102006,8.33514747 z M 31.113347,19.725029 C 28.480487,16.842901 27.14392,13.212769 27.204399,9.6735814 L 27.088371,3.9404343 C 27.031446,1.6054994 25.750345,-0.39855202 23.845563,-1.5360998 21.810319,-2.7515627 18.917654,-2.70913 16.9571,-0.55247345 14.996547,1.6041845 -15.326433,35.248538 -15.326433,35.248538 L -9.8469269,38.520937 7.3160756,20.451544 9.6790113,28.94252 0.32929838,44.59825 5.5478755,47.714822 17.235019,28.145159 14.872083,19.65418 l 6.24043,-6.892894 c 0.817258,4.558968 3.15623,9.00014 6.790766,12.338878 L 12.071098,51.610536 15.985029,53.947964 37.801027,17.417923 33.887096,15.080497 Z M 1.1758397,10.164922 -3.7169551,5.7915479 C -4.9545595,4.663052 -5.0835948,2.7452396 -3.9550989,1.507636 l 8.1071215,-9.0702071 c 2.2308989,-2.4907919 6.0770344,-2.7071869 8.5678264,-0.4762881 l 2.66837,2.4077483 z"
         id="path12"
         style="fill:#ffffff;stroke-width:3.03918" />
    </g>
  </g>
</svg>
