<?xml version="1.0" encoding="UTF-8" standalone="no"?>
<svg
   xmlns:dc="http://purl.org/dc/elements/1.1/"
   xmlns:cc="http://creativecommons.org/ns#"
   xmlns:rdf="http://www.w3.org/1999/02/22-rdf-syntax-ns#"
   xmlns:svg="http://www.w3.org/2000/svg"
   xmlns="http://www.w3.org/2000/svg"
   xmlns:sodipodi="http://sodipodi.sourceforge.net/DTD/sodipodi-0.dtd"
   xmlns:inkscape="http://www.inkscape.org/namespaces/inkscape"
   width="1156.6072mm"
   height="370.54422mm"
   viewBox="0 0 1156.6072 370.54422"
   version="1.1"
   id="svg8"
   inkscape:version="1.0.2-2 (e86c870879, 2021-01-15)"
   sodipodi:docname="main_var2.svg">
  <defs
     id="defs2" />
  <sodipodi:namedview
     id="base"
     pagecolor="#ffffff"
     bordercolor="#666666"
     borderopacity="1.0"
     inkscape:pageopacity="0.0"
     inkscape:pageshadow="2"
     inkscape:zoom="0.1767767"
     inkscape:cx="1489.7742"
     inkscape:cy="1793.0502"
     inkscape:document-units="mm"
     inkscape:current-layer="layer1"
     inkscape:document-rotation="0"
     showgrid="false"
     inkscape:window-width="1622"
     inkscape:window-height="1059"
     inkscape:window-x="2294"
     inkscape:window-y="174"
     inkscape:window-maximized="0" />
  <metadata
     id="metadata5">
    <rdf:RDF>
      <cc:Work
         rdf:about="">
        <dc:format>image/svg+xml</dc:format>
        <dc:type
           rdf:resource="http://purl.org/dc/dcmitype/StillImage" />
        <dc:title />
      </cc:Work>
    </rdf:RDF>
  </metadata>
  <g
     inkscape:label="Layer 1"
     inkscape:groupmode="layer"
     id="layer1"
     transform="translate(54.42857,33.389488)">
    <path
       sodipodi:type="star"
       style="fill:none;stroke-width:0.264999"
       id="path26"
       sodipodi:sides="5"
       sodipodi:cx="36.348656"
       sodipodi:cy="11.22532"
       sodipodi:r1="307.22049"
       sodipodi:r2="153.61024"
       sodipodi:arg1="0.55325079"
       sodipodi:arg2="1.1815693"
       inkscape:flatsided="false"
       inkscape:rounded="0"
       inkscape:randomized="0"
       d="M 297.73826,172.65612 94.639653,153.34593 -36.407329,309.70647 -80.803165,110.58104 -270.00662,34.266014 -94.346149,-69.490078 -80.233333,-273.0159 72.726645,-138.01526 270.6523,-187.48611 189.52629,-0.29503037 Z"
       inkscape:transform-center-x="22.482835"
       inkscape:transform-center-y="7.1199659" />
    <g
       id="g44"
       transform="matrix(2.340378,0,0,2.340378,37.900963,1.0023799)"
       style="fill:#d40000">
      <path
         d="M 117.49165,63.064655 11.668322,2.3718659 V 123.75745 Z"
         fill="#ffffff"
         id="path32"
         style="fill:#d40000;stroke-width:2.59371" />
    </g>
    <g
       style="fill:#000000"
       id="g24"
       transform="matrix(5.6393794,-3.3248699,3.3248699,5.6393794,35.065023,120.93061)">
      <rect
         fill="none"
         height="24"
         width="24"
         id="rect10"
         x="0"
         y="0" />
      <path
         d="m 13.5,5.5 c 1.1,0 2,-0.9 2,-2 0,-1.1 -0.9,-2 -2,-2 -1.1,0 -2,0.9 -2,2 0,1.1 0.9,2 2,2 z m 4,5.28 C 16.27,10.41 15.28,9.61 14.7,8.6 L 13.7,7 C 13.29,6.35 12.59,6 11.86,6 11.08,6 10.27,6.5 10.08,7.44 9.89,8.38 7,23 7,23 h 2.1 l 1.8,-8 2.1,2 v 6 h 2 v -7.5 l -2.1,-2 0.6,-3 c 1,1.15 2.41,2.01 4,2.34 V 23 H 19 V 9 H 17.5 Z M 7.43,13.13 5.31,12.72 C 4.77,12.61 4.41,12.09 4.52,11.55 L 5.28,7.62 C 5.49,6.54 6.54,5.83 7.62,6.04 l 1.16,0.23 z"
         id="path12"
         style="fill:#1a1a1a" />
    </g>
    <text
       xml:space="preserve"
       style="font-style:normal;font-variant:normal;font-weight:normal;font-stretch:normal;font-size:198.438px;line-height:1.25;font-family:Roboto;-inkscape-font-specification:Roboto;white-space:pre;inline-size:0;fill:#1a1a1a;fill-opacity:1;stroke:none;stroke-width:0.264583;letter-spacing:-1.10081334px"
       x="284.37476"
       y="148.60187"
       id="text55"
       transform="matrix(1.2433357,0,0,1.1615802,-74.702592,55.315547)"><tspan
         id="tspan53"
         x="284.37476"
         y="148.60187"
         style="font-style:normal;font-variant:normal;font-weight:normal;font-stretch:normal;font-size:198.438px;font-family:Roboto;-inkscape-font-specification:Roboto;fill:#1a1a1a;stroke-width:0.264583;"><tspan
   style="fill:#d40000;"
   id="tspan36">Re</tspan>hike</tspan></text>
  </g>
</svg>
